inDegrees=no
num_controls=7
num_derivatives=13
num_iterations=129
num_multipliers=7
num_parameters=0
num_slacks=7
num_states=26
objective=4.801110
objective_accelerations=0.464490
objective_balance=0.020495
objective_effort=0.136445
objective_height=4.128166
objective_ligament=0.051513
solver_duration=1407.810302
status=Solve_Succeeded
success=true
DataType=double
version=3
OpenSimVersion=4.4-2022-07-23-0e9fedc
endheader
time	/jointset/ground_pelvis/pelvis_tilt/value	/jointset/ground_pelvis/pelvis_tx/value	/jointset/ground_pelvis/pelvis_ty/value	/jointset/hip_l/hip_flexion_l/value	/jointset/hip_l/hip_adduction_l/value	/jointset/hip_l/hip_rotation_l/value	/jointset/back/lumbar_extension/value	/jointset/patellofemoral_l/patellar_flexion_l/value	/jointset/knee_l/knee_flexion_l/value	/jointset/knee_l/knee_adduction_l/value	/jointset/knee_l/knee_rotation_l/value	/jointset/ankle_l/ankle_angle_l/value	/jointset/subtalar_l/subtalar_angle_l/value	/jointset/ground_pelvis/pelvis_tilt/speed	/jointset/ground_pelvis/pelvis_tx/speed	/jointset/ground_pelvis/pelvis_ty/speed	/jointset/hip_l/hip_flexion_l/speed	/jointset/hip_l/hip_adduction_l/speed	/jointset/hip_l/hip_rotation_l/speed	/jointset/back/lumbar_extension/speed	/jointset/patellofemoral_l/patellar_flexion_l/speed	/jointset/knee_l/knee_flexion_l/speed	/jointset/knee_l/knee_adduction_l/speed	/jointset/knee_l/knee_rotation_l/speed	/jointset/ankle_l/ankle_angle_l/speed	/jointset/subtalar_l/subtalar_angle_l/speed	/forceset/tau_hip_flexion_l	/forceset/tau_hip_adduction_l	/forceset/tau_hip_rotation_l	/forceset/tau_knee_flexion_l	/forceset/tau_ankle_angle_l	/forceset/tau_subtalar_angle_l	/forceset/tau_lumbar_extension	lambda_cid13_p0	lambda_cid13_p1	lambda_cid13_p2	lambda_cid13_p3	lambda_cid13_p4	lambda_cid13_p5	lambda_cid14_p0	/jointset/ground_pelvis/pelvis_tilt/accel	/jointset/ground_pelvis/pelvis_tx/accel	/jointset/ground_pelvis/pelvis_ty/accel	/jointset/hip_l/hip_flexion_l/accel	/jointset/hip_l/hip_adduction_l/accel	/jointset/hip_l/hip_rotation_l/accel	/jointset/back/lumbar_extension/accel	/jointset/patellofemoral_l/patellar_flexion_l/accel	/jointset/knee_l/knee_flexion_l/accel	/jointset/knee_l/knee_adduction_l/accel	/jointset/knee_l/knee_rotation_l/accel	/jointset/ankle_l/ankle_angle_l/accel	/jointset/subtalar_l/subtalar_angle_l/accel	gamma_cid13_p0	gamma_cid13_p1	gamma_cid13_p2	gamma_cid13_p3	gamma_cid13_p4	gamma_cid13_p5	gamma_cid14_p0
1	-0.3353974886232407	0.04032308518541444	0.691411109432015	1.304295695041735	-0.3693622496821321	0.09765581413060409	-0.4363308473117438	1.251953852909725	1.251953852909731	-0.02618847098221021	-0.1745236178021923	0.4347677459612793	0.2124954827814055	-0.1266493680407157	0.002656542424669989	0.02542728213732301	0.03326191513206449	0.003217433847372382	-0.05394233754824532	-9.41158431419263e-05	-0.1421318428184049	-0.1421318428183941	0.001800861318548077	4.516314445514584e-06	-0.06049502178920512	-0.02786896875955716	-0.1785785724972807	0.04359930276665458	-0.001840219854716783	-0.2484830991473959	-0.06292709558717199	0.01976069081461161	0.1718235187352328	-48.59398534482836	1.358772518567846	-2.133764802518687	3.634947731448921	-516.2563933517649	-73.27459674005408	-0.02938214476384087	1.310099888648225	0.2452095623243409	1.364886329432211	-4.988430482143464	-0.08346977580772089	-1.417741332443144	-0.0335875208299945	-4.492292156652852	-4.492292156652951	-0.4404690310731297	-0.01651704758800251	-1.193452208997993	-0.7783151802156297	-5.551832810043768e-09	-7.927335348478595e-08	6.386005334780859e-08	-3.405103487028976e-10	-4.608235752011816e-09	-7.472243290913373e-08	-1.207056649005817e-08
1.01	-0.3365995929427419	0.04036183136411957	0.6917333462588383	1.304380607840123	-0.3693336690593377	0.09704558593269622	-0.4363316696902789	1.250308422088689	1.250308422088705	-0.02619148051220256	-0.1745233213689563	0.4341031452941344	0.2121788921360012	-0.1138021134143264	0.005089648273044469	0.03900597957519179	-0.01622067881905629	0.00250356324818991	-0.06809616196332982	1.678364472925445e-05	-0.1869417179571913	-0.1869417179571946	-0.002398114107625033	5.498808143075576e-05	-0.07243843639842347	-0.03544212610406651	-0.1794119669833428	0.04387952124986624	-0.001885210404634198	-0.246907692355147	-0.06414403036731497	0.01977191269250534	0.1723525457968205	-48.96663373158024	1.357588060861377	-2.063260886854628	3.857620365338008	-516.112524648952	-73.04106245924845	-0.03120737603717613	1.267445778635331	0.2419042657738061	1.352243858275351	-4.919372378642082	-0.06462369073721863	-1.41314747095884	0.04650027476183603	-4.47344163268932	-4.473441632690346	-0.4089266072267775	0.01587104693740847	-1.196790197894539	-0.7457547396253495	-7.719327845331633e-09	-9.712774691668898e-08	7.732032981281955e-08	-3.705153945755936e-10	-1.016871820465929e-08	-8.515007675799115e-08	-1.519474610256056e-08
1.02	-0.3376741432102845	0.04042481723524642	0.6921909465414968	1.30397245499348	-0.3693120827402991	0.09629403059568041	-0.4363287687598942	1.248215271228224	1.248215271228313	-0.02623634275825526	-0.1745225118666095	0.4333187096586791	0.2117867821715437	-0.1011385576277869	0.007504480909012851	0.0524999733044551	-0.06535121385199023	0.001818573098459527	-0.08220776537514161	0.0006505467791722147	-0.2316758507039885	-0.2316758507040042	-0.006569681887290709	0.0001071301722666301	-0.08446201544813918	-0.04297283257086335	-0.1802453614698731	0.04415973973323937	-0.001930200955243446	-0.2453322855630077	-0.06536096514741802	0.0197831345706993	0.1728815728579309	-49.34574866591309	1.357283841285899	-1.992609637134414	4.080808104169641	-516.0994602560011	-72.80574052670607	-0.03399512372266869	1.273360120678041	0.2415549198432454	1.347945587711142	-4.918018698506166	-0.07769368591721371	-1.409297131788493	0.0709852084851048	-4.477143678255093	-4.477143678254853	-0.4349875017716363	-0.01618298281758443	-1.209485097097274	-0.7698250046728979	-1.047074424423898e-08	-1.171497654105762e-07	8.858270250808477e-08	1.236243589108473e-10	-1.589249805996641e-08	-9.53979710161813e-08	-1.838061788341076e-08
1.03	-0.3386228807872227	0.04051204697079099	0.6927830455307719	1.303074450345308	-0.3692972528696284	0.0954016703738622	-0.4363161201908617	1.245675236596598	1.245675236596591	-0.02632290622822317	-0.174521172787552	0.4324139377410935	0.2113196849644018	-0.08863238298341884	0.009957094255702865	0.0659036376122015	-0.1142189268237599	0.001146964726135616	-0.09625717070382731	0.002049066893714043	-0.2763104994845335	-0.2763104994845796	-0.01074194465366282	0.0001563677102464099	-0.09647589925480557	-0.05042905883454302	-0.1813557922139542	0.04446216207363184	-0.001980120950534996	-0.2434565136312465	-0.0666119060075951	0.01981702331012859	0.1737357260076292	-49.72383849664374	1.334587050941261	-1.904259992820855	4.147162195884876	-516.1007162758254	-72.56618504113213	-0.03807953942779302	1.235732336755063	0.2494588790497994	1.33414445336764	-4.866529677678423	-0.0619693837285251	-1.401718366356955	0.1997703765694414	-4.453534724856854	-4.453534724860705	-0.4082047964340491	0.01484090995792782	-1.194877758721685	-0.7308790314891948	-1.322811902440775e-08	-1.371939025275449e-07	9.982264761386277e-08	6.231125287172822e-10	-2.161794421530067e-08	-1.056440310948748e-07	-2.156711917618288e-08
1.04	-0.3394472593777169	0.04062427170719766	0.693508694683331	1.301688692151112	-0.3692891540768544	0.09436902487218837	-0.4362843894273367	1.242689473627784	1.242689473627724	-0.02645116415234568	-0.1745194685756843	0.4313895194381748	0.210778553975771	-0.07626676032141395	0.01250348108143409	0.07921000596138168	-0.1629019230421768	0.0004723575202681362	-0.1102648213504705	0.004466985553405504	-0.3208215181412775	-0.3208215181413552	-0.01490857271460053	0.0001801567623297597	-0.1083912925123339	-0.05777958886918679	-0.1824662229582681	0.04476458441416395	-0.002030040946207594	-0.2415807416995618	-0.06786284686775342	0.01985091204980338	0.1745898791570925	-50.10844865511422	1.312733716206483	-1.815704386813121	4.213741233138967	-516.2329117354587	-72.32585317125273	-0.04386215901137678	1.245249724204926	0.2603096156518279	1.32848639599792	-4.88107534783578	-0.07829345262606104	-1.400946195380123	0.2748649175125604	-4.452417653494972	-4.45241765349496	-0.4338605606848583	-0.02127267999703413	-1.189786987269169	-0.748685758865677	-1.4882648419529e-08	-1.611964270124278e-07	1.059559119711832e-07	-6.954469807947903e-10	-2.756128056892248e-08	-1.257292685746337e-07	-2.331565839107884e-08
